<?xml version="1.0" standalone="yes"?><svg xmlns="http://www.w3.org/2000/svg" cursor="default" style="zoom: 1;"><path d="M26,35 L77,35 A15,15 0 0 0 92,20 A15,15 0 0 0 77,5 L26,5 A15,15 0 0 0 11,20 A15,15 0 0 0 26,35 " style="fill:none;stroke-width:2.16;stroke:rgb(0,0,0);"></path><text y="20px" text-anchor="middle" x="51px" fill="rgb(0,0,0)" dominant-baseline="central">SELECT</text><polygon points="134,50 122,54 122,46 " style="fill:rgb(0,0,0)"></polygon><path d="M92,20 L100,20 Q107,20 107,35 L107,35 Q107,50 117,50 L128,50 " style="fill:none;stroke-width:2.16;stroke:rgb(0,0,0);"></path><path d="M149,65 L217,65 A15,15 0 0 0 232,50 A15,15 0 0 0 217,35 L149,35 A15,15 0 0 0 134,50 A15,15 0 0 0 149,65 " style="fill:none;stroke-width:2.16;stroke:rgb(0,0,0);"></path><text y="50px" text-anchor="middle" x="183px" fill="rgb(0,0,0)" dominant-baseline="central">DISTINCT</text><polygon points="301,20 290,24 290,15 " style="fill:rgb(0,0,0)"></polygon><path d="M232,50 L240,50 Q247,50 247,35 L247,35 Q247,20 262,20 L280,20 L295,20 " style="fill:none;stroke-width:2.16;stroke:rgb(0,0,0);"></path><path d="M301,35 L429,35 L429,5 L301,5 " style="fill:none;stroke-width:2.16;stroke:rgb(0,0,0);"></path><text y="20px" text-anchor="middle" x="365px" fill="rgb(0,0,0)" dominant-baseline="central">result-column</text><path d="M365,73 A15,15 0 0 0 380,57 A15,15 0 0 0 365,42 A15,15 0 0 0 350,57 A15,15 0 0 0 365,73 " style="fill:none;stroke-width:2.16;stroke:rgb(0,0,0);"></path><text x="365px" font-weight="bold" y="57px" text-anchor="middle" fill="rgb(0,0,0)" dominant-baseline="central">,</text><polygon points="380,57 392,53 392,62 " style="fill:rgb(0,0,0)"></polygon><path d="M429,20 L436,20 Q444,20 444,35 L444,42 Q444,57 429,57 L401,57 L386,57 " style="fill:none;stroke-width:2.16;stroke:rgb(0,0,0);"></path><path d="M350,57 L290,57 Q275,57 275,42 L275,35 Q275,20 282,20 L290,20 " style="fill:none;stroke-width:2.16;stroke:rgb(0,0,0);"></path><polygon points="183,20 171,24 171,15 " style="fill:rgb(0,0,0)"></polygon><path d="M92,20 L177,20 " style="fill:none;stroke-width:2.16;stroke:rgb(0,0,0);"></path><path d="M183,20 L290,20 " style="fill:none;stroke-width:2.16;stroke:rgb(0,0,0);"></path><path d="M149,103 L164,103 A15,15 0 0 0 179,88 A15,15 0 0 0 164,73 L149,73 A15,15 0 0 0 134,88 A15,15 0 0 0 149,103 " style="fill:none;stroke-width:2.16;stroke:rgb(0,0,0);"></path><text y="88px" text-anchor="middle" x="156px" fill="rgb(0,0,0)" dominant-baseline="central">ALL</text><polygon points="232,88 221,92 221,83 " style="fill:rgb(0,0,0)"></polygon><path d="M179,88 L226,88 " style="fill:none;stroke-width:2.16;stroke:rgb(0,0,0);"></path><path d="M232,88 L240,88 Q247,88 247,73 L247,50 L247,35 " style="fill:none;stroke-width:2.16;stroke:rgb(0,0,0);"></path><polygon points="134,88 122,92 122,83 " style="fill:rgb(0,0,0)"></polygon><path d="M92,20 L100,20 Q107,20 107,35 L107,73 Q107,88 117,88 L128,88 " style="fill:none;stroke-width:2.16;stroke:rgb(0,0,0);"></path></svg>